P3
# CREATOR: GIMP PNM Filter Version 1.1
21 15
255
255
255
255
255
255
255
255
255
255
255
255
255
255
255
255
255
255
255
255
255
255
255
255
255
255
255
255
255
255
255
255
255
255
255
255
255
255
255
255
255
255
255
255
255
255
255
255
255
255
255
255
255
255
255
255
255
255
255
255
255
255
255
255
255
255
255
0
0
0
0
0
255
0
255
0
255
0
0
0
255
0
0
0
0
0
255
0
0
0
0
0
0
0
128
128
128
0
0
0
0
0
0
0
255
0
0
0
0
0
255
0
255
0
0
0
255
0
0
0
255
0
0
0
255
255
255
255
255
255
0
255
0
255
0
0
255
255
255
255
255
255
255
255
255
255
255
255
0
0
0
255
255
255
255
255
255
255
255
255
255
255
255
255
255
255
0
0
0
255
255
255
255
255
255
255
255
255
255
255
255
255
0
0
0
255
0
255
255
255
255
255
255
0
255
0
0
0
255
0
255
0
255
0
0
0
255
0
0
0
255
0
255
0
255
0
0
0
255
0
255
255
255
0
255
0
255
0
0
0
255
0
0
0
255
0
255
0
255
0
0
0
255
0
0
0
255
0
255
0
255
255
255
255
255
255
255
255
255
255
255
255
255
255
255
255
255
255
255
255
255
255
255
255
255
255
255
255
255
255
0
0
255
255
255
255
0
0
255
255
255
255
255
255
255
255
255
255
255
255
255
255
255
255
255
255
255
255
255
255
255
255
255
255
255
255
255
255
255
0
255
0
0
0
255
0
255
0
255
0
0
0
255
0
0
0
255
0
255
0
255
0
0
0
255
0
255
255
255
0
255
0
255
0
0
0
255
0
0
0
255
0
255
0
255
0
0
0
255
0
0
0
255
0
255
0
255
255
255
255
255
255
255
0
0
255
255
255
255
255
255
255
255
255
255
255
255
255
255
255
255
255
255
255
255
255
255
255
255
255
255
255
255
255
255
255
255
255
255
255
255
255
255
255
255
255
255
255
255
255
255
255
255
255
255
255
255
0
0
255
255
255
255
255
255
0
255
0
0
0
255
0
255
0
255
0
0
0
255
0
0
0
255
0
255
0
255
0
0
255
255
0
255
255
255
255
255
0
255
0
0
0
255
0
0
0
255
0
255
0
255
0
0
0
255
0
0
0
255
0
255
0
255
255
255
255
255
255
255
0
0
255
255
255
255
255
255
255
255
255
255
255
255
255
255
255
255
255
255
255
255
255
255
255
255
255
255
255
255
255
255
255
255
255
255
255
255
255
255
255
255
255
255
255
255
255
255
255
255
255
255
255
255
0
0
255
255
255
255
255
255
0
255
0
0
0
255
0
255
0
255
0
0
0
255
0
0
0
255
0
255
0
255
0
0
0
255
0
255
255
255
0
255
0
255
0
0
0
255
0
0
0
255
0
255
0
255
0
0
0
255
0
0
0
255
0
255
0
255
255
255
255
255
255
255
255
255
255
255
255
255
255
255
255
255
255
255
255
255
255
255
255
255
255
255
255
255
255
0
0
255
255
255
255
0
0
255
255
255
255
255
255
255
255
255
255
255
255
255
255
255
255
255
255
255
255
255
255
255
255
255
255
255
255
255
255
255
0
255
0
0
0
255
0
255
0
255
0
0
0
255
0
0
0
255
0
255
0
255
0
0
0
255
0
255
255
255
0
255
0
255
0
0
0
255
0
0
0
255
0
255
0
255
0
0
0
255
0
0
0
255
0
255
0
255
255
255
255
255
255
0
255
0
255
0
0
255
255
255
255
255
255
255
255
255
255
255
255
0
0
0
255
255
255
255
255
255
255
255
255
255
255
255
255
255
255
0
0
0
255
255
255
255
255
255
255
255
255
255
255
255
255
0
0
0
255
0
255
255
255
255
255
255
0
0
0
0
0
255
0
255
0
255
0
0
0
255
0
0
0
0
0
255
0
0
0
0
0
0
0
128
128
128
0
0
0
0
0
0
0
255
0
0
0
0
0
255
0
255
0
0
0
255
0
0
0
255
0
0
0
255
255
255
255
255
255
255
255
255
255
255
255
255
255
255
255
255
255
255
255
255
255
255
255
255
255
255
255
255
255
255
255
255
255
255
255
255
255
255
255
255
255
255
255
255
255
255
255
255
255
255
255
255
255
255
255
255
255
255
255
255
255
255
255
255
255
